<svg xmlns="http://www.w3.org/2000/svg" width="32" height="32" fill="none"><g fill="#fff" clip-path="url(#a)"><path fill-rule="evenodd" d="M19.622 3C26.46 3 32 8.607 32 15.522a12.563 12.563 0 0 1-2.227 7.165c0-1.224.088-3.04.106-4.803.028-2.852.031-5.235-1.885-7.516a7.714 7.714 0 0 0-2.633-2.025 7.557 7.557 0 0 0-3.22-.715c-4.244 0-7.682 3.48-7.682 7.771 0 4.292 3.438 7.77 7.681 7.77a7.558 7.558 0 0 0 3.302-.754 7.722 7.722 0 0 0 2.667-2.128v4.349a12.257 12.257 0 0 1-8.487 3.408c-5.286 0-9.797-3.354-11.57-8.072h-.7a1.03 1.03 0 0 1-.481.501.998.998 0 0 1-.683.076 1.017 1.017 0 0 1-.574-.385 1.056 1.056 0 0 1 .054-1.32 1 1 0 0 1 1.277-.202c.203.123.358.314.438.54h3.382a.95.95 0 0 0 .442.46.917.917 0 0 0 .627.07.934.934 0 0 0 .527-.354.97.97 0 0 0-.049-1.212.918.918 0 0 0-1.173-.186.95.95 0 0 0-.403.495H7.587a12.658 12.658 0 0 1-.342-2.933c0-.14 0-.277.006-.415H1.943a1.03 1.03 0 0 1-.48.503.999.999 0 0 1-.683.076 1.017 1.017 0 0 1-.575-.385 1.056 1.056 0 0 1 .053-1.32 1 1 0 0 1 1.278-.202c.203.122.358.313.439.54h8.281c.095.212.26.385.466.488a.97.97 0 0 0 .663.074.987.987 0 0 0 .558-.372 1.025 1.025 0 0 0-.05-1.283.97.97 0 0 0-1.24-.198c-.198.12-.348.305-.427.525h-2.83c.202-1.284.6-2.528 1.18-3.686h-3.4a1.388 1.388 0 0 1-.646.674c-.286.142-.61.178-.919.102a1.367 1.367 0 0 1-.773-.517A1.42 1.42 0 0 1 2.91 8.35a1.345 1.345 0 0 1 1.719-.272c.273.165.481.422.59.726h7.811a1.1 1.1 0 0 0 .513.537c.226.113.484.142.729.082.245-.06.462-.204.614-.41a1.127 1.127 0 0 0-.055-1.41 1.068 1.068 0 0 0-1.365-.218 1.109 1.109 0 0 0-.468.577H9.753a12.464 12.464 0 0 1 4.367-3.66A12.185 12.185 0 0 1 19.622 3ZM6.427 18.923a.623.623 0 0 1 .36.093.642.642 0 0 1 .247.283.659.659 0 0 1-.117.714.628.628 0 0 1-.693.155.635.635 0 0 1-.288-.238.656.656 0 0 1-.11-.362.637.637 0 0 1 .17-.45.61.61 0 0 1 .431-.195ZM3.947 8.452c.44 0 .796.383.796.854s-.356.854-.796.854c-.44 0-.796-.383-.796-.854s.355-.854.796-.854Zm-2.922 5.627a.58.58 0 0 1 .395.187.608.608 0 0 1 0 .826.583.583 0 0 1-.395.187.583.583 0 0 1-.395-.187.608.608 0 0 1 0-.826.583.583 0 0 1 .395-.187Zm10.616 4.133c.117 0 .23.036.328.102a.616.616 0 0 1 .089.929.587.587 0 0 1-.644.13.594.594 0 0 1-.265-.222.613.613 0 0 1 .266-.893.58.58 0 0 1 .226-.046Zm-.486-4.877c.117 0 .23.036.328.102a.617.617 0 0 1 .09.928.587.587 0 0 1-.645.132.594.594 0 0 1-.265-.222.613.613 0 0 1 .265-.894.58.58 0 0 1 .227-.046Zm2.854-5.618a.58.58 0 0 1 .328.102.616.616 0 0 1 .09.929.587.587 0 0 1-.643.13.593.593 0 0 1-.266-.221.613.613 0 0 1 .073-.762.585.585 0 0 1 .418-.178Z" clip-rule="evenodd"/><path d="M24.326 19.977a.272.272 0 0 1-.193-.058.283.283 0 0 1-.104-.175l-.283-1.04a.124.124 0 0 0-.046-.075.12.12 0 0 0-.082-.025h-2.943a.12.12 0 0 0-.082.026.125.125 0 0 0-.045.074l-.283 1.041a.284.284 0 0 1-.104.176.272.272 0 0 1-.193.057h-2.293c-.195 0-.281-.13-.226-.32l1.673-5.44h-1.376a.577.577 0 0 1-.273.259.56.56 0 0 1-.683-.175.593.593 0 0 1 0-.72.561.561 0 0 1 .683-.174.577.577 0 0 1 .273.26h2.472a.42.42 0 0 0 .715.063.444.444 0 0 0-.233-.694.42.42 0 0 0-.278.024.432.432 0 0 0-.204.195h-.8l.975-3.17a.295.295 0 0 1 .107-.172.284.284 0 0 1 .19-.06h2.917a.284.284 0 0 1 .19.06.296.296 0 0 1 .106.172l2.941 9.573c.059.183-.032.32-.226.32l-2.292-.002ZM21.27 16.52h1.753a.093.093 0 0 0 .086-.036.097.097 0 0 0 .013-.094l-.906-3.34c-.02-.107-.107-.088-.142 0l-.876 3.228c-.02.09-.077.239.068.239l.004.003Z"/></g><defs><clipPath id="a"><path fill="#fff" d="M0 3h32v25.044H0z"/></clipPath></defs></svg>